<?xml version="1.0" encoding="utf-8"?>
<!-- Generator: Adobe Illustrator 25.2.1, SVG Export Plug-In . SVG Version: 6.00 Build 0)  -->
<svg version="1.1" id="Capa_1" xmlns="http://www.w3.org/2000/svg" xmlns:xlink="http://www.w3.org/1999/xlink" x="0px" y="0px"
	 viewBox="0 0 521.3 351.9" style="enable-background:new 0 0 521.3 351.9;" xml:space="preserve">
<style type="text/css">
	.st0{fill:#0070BA;}
</style>
<path class="st0" d="M42.3,252.1c-13.9,0-26.8-9.6-26.8-26.8v-182c0-17.2,12.9-26.8,26.8-26.8h82.1c16.9,0,26.8,9.9,26.8,24.8
	c0,15.6-9.9,24.8-26.8,24.8H69.1v42.7h50.6c16.9,0,26.8,9.6,26.8,24.8c0,15.2-9.9,24.8-26.8,24.8H69.1v44h57.2
	c11.7,0,20.1,4.5,24.1,12.4c1.2-3.9,2.8-8.6,5.1-14.6l51.6-136.5c9.6-25.6,17.9-47.6,44.7-47.6c27.5,0,35.7,22,45.3,47.6l51.6,136.5
	c1.6,4.3,2.9,8,4,11.2c4.4-4.9,10.8-8,18-8c1.1,0,51.9-0.4,51.9-0.4c20.9-0.4,28.5-12.7,28.5-23.8c0-17.1-20.5-20.6-51-30.1
	c-27.8-8.5-56.6-19.9-56.6-60.8c0-49.1,40-72.2,84.7-72.2c43,0,44.5-0.2,44.5,0c14.2,0,25,10.8,25,24.1c0,13.3-10.8,24.1-24.1,24.1
	c-1,0.4-25.2-0.3-48-0.3c-14.6,0-24.5,8.7-24.5,19.7c0,13,13.2,14.6,50.3,26.3c29.1,9.2,57.3,23.4,57.3,66.2
	c0,50.5-38,74.6-86.1,75.8H42.3z M294.9,204.2L250.8,76.4l-41.6,127.8H294.9z"/>
<path class="st0" d="M481.1,304.1c0.5-4.2,3.5-7.6,7.9-7.6c4.6,0,7.4,3.3,8,7.6H481.1z M502.6,310.8c3.1,0,4.4-1.5,4.4-4.4
	c0-8.3-7.1-18.2-18-18.2c-10.5,0-17.9,9.2-17.9,19.3c0,11,7.5,19.2,18.7,19.2c7.4,0,16.3-4.2,16.3-8.5c0-2.1-1.9-4.3-4.1-4.3
	c-2.6,0-6.2,4-11.3,4c-4.6,0-8.7-2.3-9.4-7.2H502.6z M451.3,320.8c0,3.3,2.1,5.5,5,5.5c2.9,0,5-2.2,5-5.5v-15.3c0-4,3.1-5.3,6-6.7
	c3-1.4,6-1.6,6-4.9c0-3.6-2.4-5.3-4.9-5.3c-3.1,0-5.1,1.4-7,4.2h-0.1c0-3.2-2.2-4.2-4.9-4.2c-2.5,0-5.1,1.7-5.1,5V320.8z
	 M412.9,312.2c0,8.9,5.9,14.6,16.4,14.6c10.5,0,16.4-5.7,16.4-14.6v-18c0-3.3-2.1-5.5-5-5.5c-2.9,0-5,2.2-5,5.5V312
	c0,4.2-3.1,6.4-6.4,6.4s-6.4-2.3-6.4-6.4v-17.8c0-3.3-2.1-5.5-5-5.5c-2.9,0-5,2.2-5,5.5V312.2z M394.8,320.8c0,3.3,2.1,5.5,5,5.5
	c2.9,0,5-2.2,5-5.5v-23h2.8c2.6,0,4.8-1.2,4.8-4.4c0-3.2-2.2-4.4-4.8-4.4h-2.8v-6c0-3.3-2.1-5.5-5-5.5c-2.9,0-5,2.2-5,5.5v6h-2.2
	c-2.5,0-4.4,1.9-4.4,4.4c0,2.7,1.7,4.4,4.4,4.4h2.2V320.8z M353.8,312.2c0,8.9,5.9,14.6,16.4,14.6c10.5,0,16.4-5.7,16.4-14.6v-18
	c0-3.3-2.1-5.5-5-5.5c-2.9,0-5,2.2-5,5.5V312c0,4.2-3.1,6.4-6.4,6.4c-3.3,0-6.4-2.3-6.4-6.4v-17.8c0-3.3-2.1-5.5-5-5.5
	c-2.9,0-5,2.2-5,5.5V312.2z M335.6,320.8c0,3.3,2.1,5.5,5,5.5c2.9,0,5-2.2,5-5.5v-23h3.1c2.9,0,5.1-1.2,5.1-4.4
	c0-3.2-2.1-4.4-5.1-4.4h-3.1v-4.1c0-3.7,1.7-3.7,3.3-3.7c2.8,0,4.1-1.3,4.1-4.2c0-3.5-3.4-4.5-6.9-4.5c-6.1,0-10.5,4-10.5,11.4v5.1
	h-2.2c-2.5,0-4.4,1.9-4.4,4.4c0,2.7,1.7,4.4,4.4,4.4h2.2V320.8z M285.3,304.1c0.5-4.2,3.5-7.6,7.9-7.6c4.6,0,7.4,3.3,8,7.6H285.3z
	 M306.8,310.8c3.1,0,4.4-1.5,4.4-4.4c0-8.3-7.1-18.2-18-18.2c-10.5,0-17.9,9.2-17.9,19.3c0,11,7.5,19.2,18.7,19.2
	c7.4,0,16.3-4.2,16.3-8.5c0-2.1-1.9-4.3-4.1-4.3c-2.6,0-6.2,4-11.3,4c-4.6,0-8.7-2.3-9.4-7.2H306.8z M238.9,320.8
	c0,3.3,2.1,5.5,5,5.5c2.9,0,5-2.2,5-5.5v-17.4c0-3.9,2.3-6.9,6.4-6.9c3.6,0,6.5,2.2,6.5,6.9v17.4c0,3.3,2.1,5.5,5,5.5
	c2.9,0,5-2.2,5-5.5v-19.1c0-8.5-5.8-13.5-13.7-13.5c-3.1,0-7,0.9-9.1,3.5h-0.1V278c0-3.3-2.1-5.5-5-5.5c-2.9,0-5,2.2-5,5.5V320.8z
	 M220.8,320.8c0,3.3,2.1,5.5,5,5.5s5-2.2,5-5.5v-23h2.8c2.6,0,4.8-1.2,4.8-4.4c0-3.2-2.2-4.4-4.8-4.4h-2.8v-6c0-3.3-2.1-5.5-5-5.5
	s-5,2.2-5,5.5v6h-2.2c-2.5,0-4.4,1.9-4.4,4.4c0,2.7,1.7,4.4,4.4,4.4h2.2V320.8z M181.7,320.8c0,3.3,2.1,5.5,5,5.5c2.9,0,5-2.2,5-5.5
	v-23h2.8c2.6,0,4.8-1.2,4.8-4.4c0-3.2-2.2-4.4-4.8-4.4h-2.8v-6c0-3.3-2.1-5.5-5-5.5c-2.9,0-5,2.2-5,5.5v6h-2.2
	c-2.5,0-4.4,1.9-4.4,4.4c0,2.7,1.7,4.4,4.4,4.4h2.2V320.8z M140.7,320.8c0,3.3,2.1,5.5,5,5.5c2.9,0,5-2.2,5-5.5v-17.4
	c0-3.9,2.3-6.9,6.4-6.9c3.6,0,6.5,2.2,6.5,6.9v17.4c0,3.3,2.1,5.5,5,5.5c2.9,0,5-2.2,5-5.5v-19.1c0-8.5-5.8-13.5-13.7-13.5
	c-4.7,0-7.7,1.4-9.6,4.1c-0.3-2.3-2-3.7-4.6-3.7c-2.9,0-5,2.2-5,5.5V320.8z M111.3,304.1c0.5-4.2,3.5-7.6,7.9-7.6
	c4.6,0,7.4,3.3,8,7.6H111.3z M132.8,310.8c3.1,0,4.4-1.5,4.4-4.4c0-8.3-7.1-18.2-18-18.2c-10.5,0-17.9,9.2-17.9,19.3
	c0,11,7.5,19.2,18.7,19.2c7.4,0,16.3-4.2,16.3-8.5c0-2.1-1.9-4.3-4.1-4.3c-2.6,0-6.2,4-11.3,4c-4.6,0-8.7-2.3-9.4-7.2H132.8z
	 M79.2,322.1c1,2.6,2,4.2,5.4,4.2c3.4,0,4.4-1.6,5.4-4.2l10.1-25.8c0.5-1.2,0.6-2,0.6-2.9c0-3.2-2.5-4.9-5.2-4.9c-2.8,0-4,2-4.4,3.5
	l-6.4,19.7h-0.1l-6.4-19.7c-0.5-1.5-1.7-3.5-4.4-3.5c-2.7,0-5.2,1.7-5.2,4.9c0,0.9,0.1,1.7,0.6,2.9L79.2,322.1z M32.9,320.8
	c0,3.3,2.1,5.5,5,5.5c2.9,0,5-2.2,5-5.5v-17.4c0-3.9,2.3-6.9,6.4-6.9c3.6,0,6.5,2.2,6.5,6.9v17.4c0,3.3,2.1,5.5,5,5.5
	c2.9,0,5-2.2,5-5.5v-19.1c0-8.5-5.8-13.5-13.7-13.5c-4.7,0-7.7,1.4-9.6,4.1c-0.3-2.3-2-3.7-4.6-3.7c-2.9,0-5,2.2-5,5.5V320.8z
	 M16.6,320.9c0,3.5,2.2,5.4,5.2,5.4c3,0,5.2-1.9,5.2-5.4v-39.4c0-3.5-2.2-5.4-5.2-5.4c-3,0-5.2,1.9-5.2,5.4V320.9z"/>
</svg>
