<svg xmlns="http://www.w3.org/2000/svg" width="158" height="57" viewBox="0 0 158 57" fill="none"><g clip-path="url(#clip0_5_310)"><path d="M29.2922 0.647195L33.2869 4.62247C33.4199 4.75598 33.5255 4.91449 33.5975 5.08894C33.6695 5.2634 33.7065 5.45038 33.7065 5.63921C33.7065 5.82804 33.6695 6.01502 33.5975 6.18947C33.5255 6.36392 33.4199 6.52243 33.2869 6.65594L27.5003 12.4298L12.4006 27.5978C12.2677 27.7308 12.1623 27.8888 12.0904 28.0628C12.0184 28.2368 11.9814 28.4233 11.9814 28.6116C11.9814 28.8 12.0184 28.9865 12.0904 29.1605C12.1623 29.3344 12.2677 29.4925 12.4006 29.6255L27.2721 44.5528C27.4046 44.6862 27.562 44.792 27.7354 44.8642C27.9087 44.9364 28.0945 44.9735 28.2822 44.9735C28.4698 44.9735 28.6556 44.9364 28.829 44.8642C29.0023 44.792 29.1597 44.6862 29.2922 44.5528L38.1718 35.64C38.3048 35.5064 38.4627 35.4005 38.6365 35.3282C38.8103 35.256 38.9966 35.2188 39.1847 35.2188C39.3728 35.2188 39.5591 35.256 39.7329 35.3282C39.9067 35.4005 40.0646 35.5064 40.1976 35.64L44.1923 39.6496C44.3253 39.7831 44.4309 39.9416 44.5029 40.1161C44.5749 40.2905 44.6119 40.4775 44.6119 40.6663C44.6119 40.8552 44.5749 41.0421 44.5029 41.2166C44.4309 41.391 44.3253 41.5496 44.1923 41.6831L29.2922 56.576C29.1597 56.7094 29.0023 56.8152 28.829 56.8874C28.6556 56.9596 28.4698 56.9967 28.2822 56.9967C28.0945 56.9967 27.9087 56.9596 27.7354 56.8874C27.562 56.8152 27.4046 56.7094 27.2721 56.576L0.416588 29.6255C0.15103 29.3554 0.00213623 28.9911 0.00213623 28.6116C0.00213623 28.2321 0.15103 27.8679 0.416588 27.5978L27.2721 0.675836C27.4046 0.542477 27.562 0.436671 27.7354 0.364479C27.9087 0.292287 28.0945 0.255127 28.2822 0.255127C28.4698 0.255127 28.6556 0.292287 28.829 0.364479C29.0023 0.436671 29.1597 0.542477 29.2922 0.675836" fill="#E8393A"></path>
<path d="M40.7341 12.132L56.142 27.5977C56.2749 27.7308 56.3803 27.8888 56.4522 28.0628C56.5241 28.2367 56.5612 28.4233 56.5612 28.6116C56.5612 28.8 56.5241 28.9865 56.4522 29.1605C56.3803 29.3344 56.2749 29.4925 56.142 29.6255L52.1759 33.6351C52.0434 33.7685 51.8859 33.8743 51.7126 33.9465C51.5393 34.0187 51.3535 34.0558 51.1658 34.0558C50.9782 34.0558 50.7924 34.0187 50.619 33.9465C50.4457 33.8743 50.2883 33.7685 50.1557 33.6351L40.7341 24.1552C40.6015 24.0218 40.4441 23.916 40.2708 23.8438C40.0975 23.7716 39.9116 23.7345 39.724 23.7345C39.5363 23.7345 39.3505 23.7716 39.1772 23.8438C39.0039 23.916 38.8464 24.0218 38.7139 24.1552L29.2922 33.6065C29.1597 33.7398 29.0023 33.8457 28.829 33.9178C28.6556 33.99 28.4698 34.0272 28.2822 34.0272C28.0945 34.0272 27.9087 33.99 27.7354 33.9178C27.562 33.8457 27.4046 33.7398 27.2721 33.6065L23.2774 29.5968C23.0119 29.3267 22.863 28.9625 22.863 28.583C22.863 28.2035 23.0119 27.8392 23.2774 27.5691L38.6854 12.1033C38.8179 11.97 38.9753 11.8642 39.1487 11.792C39.322 11.7198 39.5078 11.6826 39.6955 11.6826C39.8831 11.6826 40.0689 11.7198 40.2422 11.792C40.4156 11.8642 40.573 11.97 40.7055 12.1033" fill="#302D7E"></path>
<path d="M153.509 21.8295C153.535 21.4619 153.489 21.0926 153.371 20.7434C153.253 20.3942 153.067 20.0721 152.824 19.7961C152.088 19.1704 151.242 18.6868 150.33 18.3698C148.135 17.5335 146.554 16.5521 145.588 15.4256C144.64 14.3247 144.13 12.9111 144.156 11.456C144.125 10.6094 144.286 9.76683 144.627 8.9919C144.968 8.21696 145.48 7.52985 146.124 6.98238C147.528 5.82682 149.304 5.22767 151.118 5.29833C152.37 5.27694 153.608 5.57034 154.719 6.15181C155.748 6.6976 156.594 7.53657 157.15 8.56333C157.73 9.65088 158.023 10.8697 158 12.1033H153.589C153.652 11.2628 153.422 10.4265 152.938 9.73758C152.709 9.4632 152.418 9.24668 152.09 9.10542C151.762 8.96415 151.406 8.90209 151.049 8.9242C150.717 8.90454 150.383 8.9556 150.072 9.07405C149.76 9.1925 149.477 9.37566 149.24 9.61157C148.79 10.1167 148.554 10.7787 148.584 11.456C148.589 11.7639 148.656 12.0677 148.78 12.3492C148.905 12.6307 149.084 12.8841 149.309 13.0942C150.065 13.7528 150.933 14.2689 151.871 14.6179C154.013 15.3816 155.567 16.3363 156.533 17.4819C157.531 18.6908 158.049 20.2266 157.989 21.7952C158.033 22.6326 157.893 23.4695 157.577 24.246C157.261 25.0224 156.778 25.7191 156.162 26.286C154.949 27.3628 153.298 27.9013 151.209 27.9013C149.867 27.9181 148.54 27.6179 147.334 27.0249C146.201 26.4702 145.252 25.599 144.601 24.516C143.922 23.3477 143.58 22.013 143.614 20.661H148.059C148.059 21.9326 148.304 22.8549 148.795 23.4277C149.111 23.7388 149.49 23.9769 149.907 24.1253C150.324 24.2737 150.769 24.3289 151.209 24.2869C152.754 24.2869 153.526 23.4659 153.526 21.8238" fill="black"></path>
<path d="M81.6907 25.0775C80.8107 26.0263 79.7196 26.7525 78.5064 27.1969C77.1854 27.6828 75.7873 27.9235 74.3805 27.9072C71.8315 27.9072 69.8475 27.1148 68.4284 25.53C67.0094 23.9452 66.2827 21.633 66.2485 18.5933V14.5837C66.2485 11.5096 66.9162 9.14201 68.2515 7.48087C69.5869 5.81973 71.5386 4.99107 74.1066 4.99489C76.5186 4.99489 78.3371 5.59251 79.5621 6.78777C80.7871 7.98303 81.4967 9.85611 81.6907 12.407H77.3251C77.2072 10.9864 76.9123 10.0184 76.4406 9.50288C76.1491 9.22619 75.8028 9.01431 75.4242 8.88107C75.0456 8.74782 74.6433 8.69621 74.2435 8.72959C73.7242 8.69226 73.2044 8.79659 72.7393 9.03154C72.2741 9.26649 71.8809 9.62331 71.6013 10.0642C71.0421 10.954 70.7625 12.3726 70.7625 14.3202V18.3298C70.7625 20.3576 71.0649 21.8354 71.6698 22.7634C72.2747 23.6913 73.2696 24.1534 74.6544 24.1495C75.4085 24.1839 76.1561 23.9968 76.8058 23.6111L77.1996 23.3362V19.2692H74.0552V15.8668H81.7021L81.6907 25.0775Z" fill="black"></path>
<path d="M99.2957 5.29834V20.7641C99.2729 23.0821 98.6375 24.8559 97.3897 26.0855C96.1418 27.3151 94.3461 27.9299 92.0026 27.9299C89.6172 27.9299 87.8025 27.3113 86.5413 26.0626C85.2802 24.8139 84.6581 23.0153 84.6581 20.6553V5.29834H89.1778V20.6496C89.1778 21.9155 89.3775 22.8205 89.7884 23.3589C90.1993 23.8974 90.9297 24.1723 92.0026 24.1723C93.0754 24.1723 93.8002 23.9031 94.1997 23.3647C94.6639 22.5664 94.8767 21.6459 94.8103 20.724V5.29834H99.2957Z" fill="black"></path>
<path d="M86.0392 1.95325C86.0358 1.69146 86.0897 1.43213 86.1972 1.19358C86.3047 0.955036 86.4631 0.743109 86.6612 0.572787C87.0796 0.214133 87.6118 0.0170898 88.162 0.0170898C88.7123 0.0170898 89.2444 0.214133 89.6629 0.572787C89.8632 0.744966 90.0229 0.959669 90.1305 1.20138C90.2381 1.44309 90.2908 1.70577 90.2849 1.97044C90.2895 2.2324 90.236 2.49212 90.1285 2.73085C90.0209 2.96958 89.8619 3.18135 89.6629 3.3509C89.2444 3.70955 88.7123 3.9066 88.162 3.9066C87.6118 3.9066 87.0796 3.70955 86.6612 3.3509C86.4622 3.18135 86.3031 2.96958 86.1956 2.73085C86.088 2.49212 86.0346 2.2324 86.0392 1.97044" fill="black"></path>
<path d="M93.5035 1.95316C93.499 1.69176 93.5519 1.43258 93.6584 1.194C93.7649 0.955426 93.9224 0.743306 94.1198 0.572696C94.5391 0.213612 95.0723 0.0163574 95.6235 0.0163574C96.1747 0.0163574 96.7078 0.213612 97.1272 0.572696C97.3245 0.743306 97.4821 0.955426 97.5886 1.194C97.6951 1.43258 97.748 1.69176 97.7435 1.95316C97.7486 2.20782 97.7005 2.46072 97.6022 2.69554C97.5039 2.93036 97.3576 3.14188 97.1728 3.31644C96.7475 3.68643 96.2035 3.8901 95.6406 3.8901C95.0777 3.8901 94.5337 3.68643 94.1084 3.31644C93.9236 3.14188 93.7773 2.93036 93.679 2.69554C93.5807 2.46072 93.5326 2.20782 93.5377 1.95316" fill="black"></path>
<path d="M108.58 5.29834L112.775 21.4286L116.958 5.29834H122.819V27.6034H118.316V21.5661L118.727 12.2694L114.287 27.6034H111.234L106.794 12.2694L107.205 21.5661V27.6034H102.72V5.29834H108.58Z" fill="black"></path>
<path d="M140.874 5.29834V20.7641C140.852 23.0821 140.214 24.8559 138.963 26.0855C137.711 27.3151 135.915 27.9299 133.576 27.9299C131.198 27.9299 129.379 27.3075 128.12 26.0626C126.861 24.8177 126.233 23.0038 126.237 20.6209V5.29834H130.756V20.6496C130.756 21.9155 130.956 22.8205 131.367 23.3589C131.778 23.8974 132.508 24.1723 133.576 24.1723C134.643 24.1723 135.379 23.9031 135.773 23.3647C136.243 22.5688 136.458 21.6469 136.389 20.724V5.29834H140.874Z" fill="black"></path>
<path d="M127.595 1.95316C127.592 1.692 127.646 1.43331 127.752 1.19497C127.858 0.956625 128.015 0.744312 128.211 0.572696C128.631 0.213612 129.164 0.0163574 129.715 0.0163574C130.266 0.0163574 130.799 0.213612 131.219 0.572696C131.413 0.745378 131.567 0.958165 131.672 1.19645C131.776 1.43474 131.828 1.69288 131.824 1.95316C131.828 2.21456 131.775 2.47374 131.669 2.71232C131.562 2.95089 131.405 3.16301 131.207 3.33362C130.788 3.69271 130.255 3.88996 129.704 3.88996C129.152 3.88996 128.619 3.69271 128.2 3.33362C128.003 3.16301 127.845 2.95089 127.739 2.71232C127.632 2.47374 127.579 2.21456 127.584 1.95316" fill="black"></path>
<path d="M135.059 1.95317C135.055 1.69177 135.108 1.43259 135.214 1.19401C135.321 0.955438 135.478 0.743318 135.676 0.572708C136.094 0.216659 136.625 0.0212402 137.174 0.0212402C137.722 0.0212402 138.253 0.216659 138.672 0.572708C138.869 0.743318 139.026 0.955438 139.133 1.19401C139.24 1.43259 139.292 1.69177 139.288 1.95317C139.293 2.20783 139.245 2.46073 139.147 2.69555C139.048 2.93037 138.902 3.14189 138.717 3.31645C138.292 3.68644 137.748 3.89011 137.185 3.89011C136.622 3.89011 136.078 3.68644 135.653 3.31645C135.468 3.14189 135.322 2.93037 135.223 2.69555C135.125 2.46073 135.077 2.20783 135.082 1.95317" fill="black"></path>
<path d="M148.886 31.2981C148.881 30.9993 148.941 30.703 149.064 30.4306C149.186 30.1581 149.367 29.9164 149.594 29.7229C150.07 29.3116 150.678 29.0854 151.306 29.0854C151.934 29.0854 152.542 29.3116 153.018 29.7229C153.244 29.9175 153.424 30.1594 153.546 30.4316C153.669 30.7038 153.73 30.9996 153.726 31.2981C153.728 31.5906 153.669 31.8802 153.553 32.1484C153.437 32.4167 153.266 32.6578 153.052 32.8562C152.567 33.2812 151.945 33.5154 151.3 33.5154C150.656 33.5154 150.034 33.2812 149.548 32.8562C149.333 32.6587 149.162 32.4178 149.046 32.1493C148.93 31.8808 148.872 31.5908 148.875 31.2981" fill="#E8393A"></path>
<path d="M80.5836 47.1704H73.6842V53.0073H81.8448V56.6905H69.2559V34.689H81.8162V38.3893H73.6842V43.5904H80.5836V47.1704Z" fill="black"></path>
<path d="M99.3813 56.6905H94.9529L88.4759 42.2615V56.6905H84.0532V34.689H88.4759L94.9643 49.1351V34.689H99.3813V56.6905Z" fill="black"></path>
<path d="M113.916 47.1704H107.017V53.0073H115.183V56.6905H102.594V34.689H115.149V38.3893H107.017V43.5904H113.916V47.1704Z" fill="black"></path>
<path d="M124.028 48.654H121.831V56.7077H117.403V34.689H124.462C126.684 34.689 128.396 35.2618 129.598 36.4074C130.808 37.553 131.413 39.2027 131.413 41.3278C131.413 44.2491 130.355 46.294 128.24 47.4626L132.075 56.4671V56.7077H127.321L124.028 48.654ZM121.831 44.9479H124.342C124.72 44.9749 125.098 44.9087 125.444 44.7549C125.791 44.6011 126.094 44.3645 126.328 44.0658C126.804 43.3725 127.039 42.5409 126.996 41.7001C126.996 39.4853 126.132 38.3778 124.405 38.3778H121.82L121.831 44.9479Z" fill="black"></path>
<path d="M141.337 34.689H145.759V49.9199C145.857 51.8044 145.22 53.6531 143.984 55.0752C143.408 55.7097 142.701 56.2113 141.913 56.5455C141.125 56.8797 140.274 57.0386 139.419 57.0112C137.41 57.0112 135.853 56.4384 134.734 55.2126C133.616 53.9868 133.068 52.3486 133.068 50.212H137.507C137.507 52.2856 138.145 53.3224 139.419 53.3224C140.694 53.3224 141.337 52.1233 141.348 49.7251L141.337 34.689Z" fill="black"></path>
<path d="M153.526 34.689H149.098V56.6962H153.526V34.689Z" fill="black"></path>
</g><defs><clipPath id="clip0_5_310"><rect width="158" height="57" fill="black"></rect></clipPath></defs></svg>